<?xml version="1.0" encoding="UTF-8"?>
<svg id="Camada_2" data-name="Camada 2" xmlns="http://www.w3.org/2000/svg" viewBox="0 0 186.12 56.69">
  <defs>
    <style>
      .cls-1 {
        fill: #d3d3d3;
      }
    </style>
  </defs>
  <g id="Camada_1-2" data-name="Camada 1">
    <g>
      <rect class="cls-1" x="32.51" y="41.68" width="22.11" height="7.92" rx="3.74" ry="3.74" transform="translate(89.2 2.08) rotate(90)"/>
      <rect class="cls-1" x="76.07" y="41.68" width="22.11" height="7.92" rx="3.74" ry="3.74" transform="translate(132.76 -41.48) rotate(90)"/>
      <g>
        <rect class="cls-1" x="48.35" y="41.68" width="22.11" height="7.92" rx="3.74" ry="3.74" transform="translate(105.04 -13.76) rotate(90)"/>
        <rect class="cls-1" x="64.28" y="45.73" width="14" height="7.92" rx="3.74" ry="3.74" transform="translate(120.97 -21.59) rotate(90)"/>
      </g>
      <g>
        <rect class="cls-1" x="-7.09" y="41.68" width="22.11" height="7.92" rx="3.74" ry="3.74" transform="translate(49.6 41.68) rotate(90)"/>
        <rect class="cls-1" x="16.67" y="41.68" width="22.11" height="7.92" rx="3.74" ry="3.74" transform="translate(73.36 17.92) rotate(90)"/>
        <rect class="cls-1" x="8.84" y="37.63" width="14" height="7.92" rx="3.74" ry="3.74" transform="translate(57.43 25.75) rotate(90)"/>
      </g>
      <g>
        <rect class="cls-1" x="143.39" y="41.68" width="22.11" height="7.92" rx="3.74" ry="3.74" transform="translate(200.08 -108.8) rotate(90)"/>
        <rect class="cls-1" x="138.13" y="41.68" width="8.86" height="7.92" rx="3.74" ry="3.74" transform="translate(188.2 -96.92) rotate(90)"/>
      </g>
      <g>
        <rect class="cls-1" x="159.23" y="41.68" width="22.11" height="7.92" rx="3.74" ry="3.74" transform="translate(215.92 -124.64) rotate(90)"/>
        <rect class="cls-1" x="177.73" y="48.3" width="8.86" height="7.92" rx="3.74" ry="3.74" transform="translate(234.42 -129.9) rotate(90)"/>
      </g>
      <g>
        <rect class="cls-1" x="91.91" y="41.68" width="22.11" height="7.92" rx="3.74" ry="3.74" transform="translate(148.6 -57.32) rotate(90)"/>
        <rect class="cls-1" x="115.67" y="41.68" width="22.11" height="7.92" rx="3.74" ry="3.74" transform="translate(172.36 -81.08) rotate(90)"/>
        <rect class="cls-1" x="107.84" y="37.63" width="14" height="7.92" rx="3.74" ry="3.74" transform="translate(156.43 -73.25) rotate(90)"/>
      </g>
      <path class="cls-1" d="M0,7.68h7.03l.16,3.4c1.13-2.51,3.27-3.88,5.82-3.88,3.03,0,5.09,1.7,6.02,4.41,1.09-2.91,3.32-4.41,6.02-4.41,4.33,0,7.4,2.79,7.4,8.29v14.03h-7.84v-11.72c0-3.07-.65-4.57-2.47-4.57-1.7,0-2.51,1.66-2.51,4.57v11.72h-6.87v-11.72c0-3.07-.61-4.57-2.43-4.57-1.7,0-2.51,1.66-2.51,4.57v11.72H0V7.68Z"/>
      <path class="cls-1" d="M38.26,0h8.09v5.5h-8.09V0ZM38.39,7.68h7.84v21.83h-7.84V7.68Z"/>
      <path class="cls-1" d="M54.85,7.84h7.03l.16,3.36c1.21-2.83,3.52-3.84,6.31-3.84,4.53,0,7.48,2.95,7.48,8.29v14.03h-7.84v-11.32c0-3.15-.4-4.97-2.51-4.97-1.98,0-2.79,1.82-2.79,4.97v11.32h-7.84V7.84Z"/>
      <path class="cls-1" d="M83.08.16h8.09v5.5h-8.09V.16ZM83.2,7.84h7.84v21.83h-7.84V7.84Z"/>
      <path class="cls-1" d="M98.61,7.84h7.03l.16,3.4c1.13-2.51,3.27-3.88,5.82-3.88,3.03,0,5.09,1.7,6.02,4.41,1.09-2.91,3.32-4.41,6.02-4.41,4.33,0,7.4,2.79,7.4,8.29v14.03h-7.84v-11.72c0-3.07-.65-4.57-2.47-4.57-1.7,0-2.51,1.66-2.51,4.57v11.72h-6.87v-11.72c0-3.07-.61-4.57-2.43-4.57-1.7,0-2.51,1.66-2.51,4.57v11.72h-7.84V7.84Z"/>
      <path class="cls-1" d="M136.74,24.18c0-3.88,2.63-5.78,7.4-6.79l6.55-1.37c0-2.26-1.01-3.48-2.75-3.48s-2.83.89-3.07,2.63l-7.76-.24c.85-5.26,4.69-7.56,10.83-7.56,7.12,0,10.59,3.07,10.59,9.3v6.39c0,1.41.49,1.7,1.29,1.7h.44v4.93c-.49.16-1.74.32-2.75.32-2.02,0-4.53-.65-5.22-3.68-1.13,2.39-3.6,3.84-7.68,3.84-4.61,0-7.88-2.18-7.88-5.98ZM150.68,21.1v-.73l-3.56.89c-1.37.32-2.34,1.05-2.34,2.18s.61,1.78,2.02,1.78c2.18,0,3.88-1.29,3.88-4.12Z"/>
      <path class="cls-1" d="M166.32,22.8V.81h7.84v21.1c0,1.54.73,2.06,2.02,2.06h1.17v5.54h-4.41c-4.2,0-6.63-1.94-6.63-6.71Z"/>
    </g>
  </g>
</svg>